<svg width="16" height="16" viewBox="0 0 16 16" fill="none" xmlns="http://www.w3.org/2000/svg">
<path d="M4.69977 7.52846L3.28644 8.94246C2.78633 9.44257 2.50537 10.1209 2.50537 10.8281C2.50537 11.5354 2.78633 12.2137 3.28644 12.7138C3.78655 13.2139 4.46484 13.4949 5.17211 13.4949C5.87937 13.4949 6.55766 13.2139 7.05777 12.7138L8.94311 10.8285C9.19074 10.5808 9.38718 10.2869 9.5212 9.96332C9.65522 9.63977 9.7242 9.293 9.7242 8.9428C9.7242 8.59259 9.65522 8.24582 9.5212 7.92227C9.38718 7.59873 9.19074 7.30475 8.94311 7.05713L8.23644 7.7638C8.39125 7.91857 8.51406 8.10232 8.59784 8.30455C8.68163 8.50679 8.72475 8.72355 8.72475 8.94246C8.72475 9.16137 8.68163 9.37813 8.59784 9.58037C8.51406 9.78261 8.39125 9.96636 8.23644 10.1211L6.34977 12.0065C6.03544 12.3101 5.61443 12.478 5.17744 12.4743C4.74044 12.4705 4.32242 12.2952 4.01341 11.9862C3.7044 11.6771 3.52911 11.2591 3.52532 10.8221C3.52152 10.3851 3.68951 9.96413 3.99311 9.6498L5.40644 8.2358L4.69977 7.52846Z" fill="white"/>
<path d="M10.5928 7.76395L12.0068 6.35062C12.3171 6.03763 12.4909 5.61446 12.49 5.1737C12.4891 4.73293 12.3136 4.31048 12.002 3.99876C11.6904 3.68705 11.268 3.51147 10.8272 3.51045C10.3864 3.50942 9.9632 3.68303 9.65013 3.99328L7.76413 5.87862C7.60932 6.03339 7.48652 6.21714 7.40273 6.41938C7.31894 6.62162 7.27582 6.83838 7.27582 7.05729C7.27582 7.27619 7.31894 7.49295 7.40273 7.69519C7.48652 7.89743 7.60932 8.08118 7.76413 8.23595L7.05746 8.94262C6.80983 8.69499 6.61339 8.40102 6.47937 8.07747C6.34535 7.75393 6.27637 7.40715 6.27637 7.05695C6.27637 6.70675 6.34535 6.35997 6.47937 6.03643C6.61339 5.71289 6.80983 5.41891 7.05746 5.17128L8.9428 3.28595C9.44291 2.78584 10.1212 2.50488 10.8285 2.50488C11.5357 2.50488 12.214 2.78584 12.7141 3.28595C13.2142 3.78606 13.4952 4.46436 13.4952 5.17162C13.4952 5.87888 13.2142 6.55718 12.7141 7.05729L11.3001 8.47128L10.5928 7.76395Z" fill="white"/>
</svg>
