<svg width="41" height="41" viewBox="0 0 41 41" fill="none" xmlns="http://www.w3.org/2000/svg">
<path d="M3.44922 8.44844C3.44922 8.00032 3.62724 7.57055 3.94411 7.25368C4.26098 6.93681 4.69075 6.75879 5.13887 6.75879H35.5527C36.0008 6.75879 36.4306 6.93681 36.7474 7.25368C37.0643 7.57055 37.2423 8.00032 37.2423 8.44844V32.1036C37.2423 32.5517 37.0643 32.9815 36.7474 33.2984C36.4306 33.6153 36.0008 33.7933 35.5527 33.7933H5.13887C4.69075 33.7933 4.26098 33.6153 3.94411 33.2984C3.62724 32.9815 3.44922 32.5517 3.44922 32.1036V8.44844Z" stroke="white" stroke-width="3.37931" stroke-linejoin="round"/>
<path d="M30.4837 6.75879V33.7933M10.2078 6.75879V33.7933M32.1734 15.2071H37.2423M32.1734 25.345H37.2423M3.44922 15.2071H8.51818M3.44922 13.5174V16.8967M7.67336 6.75879H12.7423M7.67336 33.7933H12.7423M27.9492 6.75879H33.0182M27.9492 33.7933H33.0182M3.44922 25.345H8.51818M3.44922 23.6553V27.0347M37.2423 23.6553V27.0347M37.2423 13.5174V16.8967" stroke="white" stroke-width="3.37931" stroke-linecap="round" stroke-linejoin="round"/>
<path d="M17.8105 16.0518L24.5692 20.2759L17.8105 24.5V16.0518Z" stroke="white" stroke-width="3.37931" stroke-linejoin="round"/>
</svg>
