<svg width="41" height="41" viewBox="0 0 41 41" fill="none" xmlns="http://www.w3.org/2000/svg">
<path d="M32.4837 5.51709H8.82853C6.96219 5.51709 5.44922 7.03006 5.44922 8.8964V32.5516C5.44922 34.4179 6.96219 35.9309 8.82853 35.9309H32.4837C34.35 35.9309 35.863 34.4179 35.863 32.5516V8.8964C35.863 7.03006 34.35 5.51709 32.4837 5.51709Z" stroke="white" stroke-width="3.37931" stroke-linecap="round" stroke-linejoin="round"/>
<path d="M15.5863 19.0345C17.4527 19.0345 18.9657 17.5215 18.9657 15.6552C18.9657 13.7888 17.4527 12.2759 15.5863 12.2759C13.72 12.2759 12.207 13.7888 12.207 15.6552C12.207 17.5215 13.72 19.0345 15.5863 19.0345Z" stroke="white" stroke-width="3.37931" stroke-linecap="round" stroke-linejoin="round"/>
<path d="M35.8624 25.7935L30.6481 20.5793C30.0144 19.9457 29.155 19.5898 28.259 19.5898C27.3629 19.5898 26.5035 19.9457 25.8698 20.5793L10.5176 35.9315" stroke="white" stroke-width="3.37931" stroke-linecap="round" stroke-linejoin="round"/>
</svg>
